<?xml version="1.0" encoding="UTF-8" standalone="no"?>
<!-- Created with Inkscape (http://www.inkscape.org/) -->
<svg
   xmlns:dc="http://purl.org/dc/elements/1.1/"
   xmlns:cc="http://creativecommons.org/ns#"
   xmlns:rdf="http://www.w3.org/1999/02/22-rdf-syntax-ns#"
   xmlns:svg="http://www.w3.org/2000/svg"
   xmlns="http://www.w3.org/2000/svg"
   xmlns:sodipodi="http://sodipodi.sourceforge.net/DTD/sodipodi-0.dtd"
   xmlns:inkscape="http://www.inkscape.org/namespaces/inkscape"
   width="471.32379"
   height="221.6579"
   id="svg2"
   sodipodi:version="0.32"
   inkscape:version="0.46"
   sodipodi:docname="ftir_schema.svg"
   version="1.0"
   inkscape:output_extension="org.inkscape.output.svg.inkscape">
  <defs
     id="defs4">
    <marker
       inkscape:stockid="Arrow1Lend"
       orient="auto"
       refY="0"
       refX="0"
       id="Arrow1Lend"
       style="overflow:visible">
      <path
         id="path3200"
         d="M 0,0 L 5,-5 L -12.5,0 L 5,5 L 0,0 z"
         style="fill-rule:evenodd;stroke:#000000;stroke-width:1pt;marker-start:none"
         transform="matrix(-0.8,0,0,-0.8,-10,0)" />
    </marker>
    <marker
       inkscape:stockid="Arrow1Lstart"
       orient="auto"
       refY="0"
       refX="0"
       id="Arrow1Lstart"
       style="overflow:visible">
      <path
         id="path3197"
         d="M 0,0 L 5,-5 L -12.5,0 L 5,5 L 0,0 z"
         style="fill-rule:evenodd;stroke:#000000;stroke-width:1pt;marker-start:none"
         transform="matrix(0.8,0,0,0.8,10,0)" />
    </marker>
    <marker
       inkscape:stockid="Arrow2Lend"
       orient="auto"
       refY="0"
       refX="0"
       id="Arrow2Lend"
       style="overflow:visible">
      <path
         id="path3218"
         style="font-size:12px;fill-rule:evenodd;stroke-width:0.625;stroke-linejoin:round"
         d="M 8.7185878,4.0337352 L -2.2072895,0.016013256 L 8.7185884,-4.0017078 C 6.97309,-1.6296469 6.9831476,1.6157441 8.7185878,4.0337352 z"
         transform="matrix(-1.1,0,0,-1.1,-1.1,0)" />
    </marker>
    <inkscape:perspective
       sodipodi:type="inkscape:persp3d"
       inkscape:vp_x="0 : 526.18109 : 1"
       inkscape:vp_y="0 : 1000 : 0"
       inkscape:vp_z="744.09448 : 526.18109 : 1"
       inkscape:persp3d-origin="372.04724 : 350.78739 : 1"
       id="perspective10" />
  </defs>
  <sodipodi:namedview
     id="base"
     pagecolor="#ffffff"
     bordercolor="#666666"
     borderopacity="1.0"
     gridtolerance="10000"
     guidetolerance="10"
     objecttolerance="10"
     inkscape:pageopacity="0.0"
     inkscape:pageshadow="2"
     inkscape:zoom="1.979899"
     inkscape:cx="171.60377"
     inkscape:cy="155.11236"
     inkscape:document-units="cm"
     inkscape:current-layer="layer1"
     showgrid="true"
     inkscape:window-width="1024"
     inkscape:window-height="696"
     inkscape:window-x="-4"
     inkscape:window-y="-4">
    <inkscape:grid
       type="xygrid"
       id="grid12671"
       visible="true"
       enabled="true" />
  </sodipodi:namedview>
  <metadata
     id="metadata7">
    <rdf:RDF>
      <cc:Work
         rdf:about="">
        <dc:format>image/svg+xml</dc:format>
        <dc:type
           rdf:resource="http://purl.org/dc/dcmitype/StillImage" />
        <cc:license
           rdf:resource="http://creativecommons.org/licenses/publicdomain/" />
        <dc:title>FTIR náčrt</dc:title>
        <dc:creator>
          <cc:Agent>
            <dc:title>Peter Perešíni</dc:title>
          </cc:Agent>
        </dc:creator>
      </cc:Work>
      <cc:License
         rdf:about="http://creativecommons.org/licenses/publicdomain/">
        <cc:permits
           rdf:resource="http://creativecommons.org/ns#Reproduction" />
        <cc:permits
           rdf:resource="http://creativecommons.org/ns#Distribution" />
        <cc:permits
           rdf:resource="http://creativecommons.org/ns#DerivativeWorks" />
      </cc:License>
    </rdf:RDF>
  </metadata>
  <g
     inkscape:label="Layer 1"
     inkscape:groupmode="layer"
     id="layer1"
     transform="translate(-30.1875,-40.308766)">
    <path
       style="fill:#ffaaaa;fill-rule:evenodd;stroke:#000000;stroke-width:0.30000001;stroke-linecap:butt;stroke-linejoin:miter;stroke-miterlimit:4;stroke-dasharray:none;stroke-opacity:1"
       d="M 309.71682,86.739809 C 309.62284,86.739809 311.73264,87.408073 314.18111,86.91838 C 315.65189,86.624223 316.49352,86.095147 317.93111,86.382666 C 319.13753,86.623951 319.31206,87.454095 321.14539,87.454095 C 322.96433,87.454095 323.73622,86.515825 325.07397,85.846952 C 326.02098,85.373445 326.44878,84.33004 326.68111,83.16838 C 327.04777,81.335067 326.04211,81.10081 324.89539,79.954095 C 323.46182,78.52052 322.85825,78.113733 321.50254,77.096952 C 320.11288,76.054706 318.92565,75.872248 317.39539,74.954095 C 315.91762,74.06743 313.59078,73.35063 312.39539,72.454095 C 311.51143,71.79112 308.60997,72.263714 307.57397,71.91838 C 305.97437,71.385181 304.00681,70.66838 301.85968,70.66838 C 299.51384,70.66838 298.74424,71.021698 296.50254,71.91838 C 295.07437,72.489648 293.70305,73.82361 292.03825,74.239809 C 290.06731,74.732545 288.15501,74.935964 286.32397,75.66838 C 286.24581,75.699644 286.20492,75.787428 286.14539,75.846952 C 285.25976,76.732589 285.60968,78.365509 285.60968,79.596952 C 285.60968,80.069494 287.88561,81.148077 288.10968,81.204095 C 289.27695,81.495911 289.9924,82.729676 290.60968,83.346952 C 291.51993,84.257203 292.22777,85.227424 293.46682,85.846952 C 294.62009,86.423587 296.18689,86.561237 297.57397,86.561237 C 298.4949,86.561237 300.08539,87.096952 301.32397,87.096952 C 302.63349,87.096952 303.94301,87.096952 305.25254,87.096952 C 306.95617,87.096952 308.12863,87.057448 309.71682,86.739809 z"
       id="path12409" />
    <rect
       style="fill:#0000ff;stroke:none;stroke-width:2.5;stroke-miterlimit:4;stroke-dasharray:none;stroke-opacity:1"
       id="rect3162"
       width="86.616096"
       height="5.0000005"
       x="123.5714"
       y="61.966663" />
    <g
       id="g3168"
       transform="matrix(-0.5872984,0,0,0.5872984,364.1865,-23.158913)"
       style="fill:#80b3ff">
      <rect
         transform="matrix(0.7906115,0.6123181,-0.6509791,0.7590956,0,0)"
         y="-78.467583"
         x="415.24268"
         height="175.96759"
         width="8.014884"
         id="rect2388"
         style="fill:#80b3ff;stroke:none;stroke-opacity:1" />
      <rect
         transform="matrix(0.7906115,0.6123181,-0.6509791,0.7590956,0,0)"
         y="-77.424805"
         x="426.32278"
         height="175.96759"
         width="8.014884"
         id="rect3166"
         style="fill:#80b3ff;stroke:none;stroke-opacity:1" />
    </g>
    <rect
       style="fill:#ff0000;stroke:none;stroke-width:2.5;stroke-miterlimit:4;stroke-dasharray:none;stroke-opacity:1"
       id="rect3172"
       width="74.842827"
       height="2.9663048"
       x="95.1875"
       y="130.06493" />
    <rect
       style="fill:#ff0000;stroke:none;stroke-width:2.5;stroke-miterlimit:4;stroke-dasharray:none;stroke-opacity:1"
       id="rect3174"
       width="3.5595658"
       height="65"
       x="166.62793"
       y="66.966667" />
    <rect
       style="fill:#ff0000;stroke:none;stroke-width:2.5;stroke-miterlimit:4;stroke-dasharray:none;stroke-opacity:1"
       id="rect3178"
       width="3.5595658"
       height="93.735229"
       x="166.62793"
       y="131.96666" />
    <path
       style="fill:none;fill-rule:evenodd;stroke:#000000;stroke-width:0.57362437px;stroke-linecap:butt;stroke-linejoin:miter;marker-end:url(#Arrow2Lend);stroke-opacity:1"
       d="M 140.1875,136.96666 L 116.84975,136.96663 L 115.15691,136.96663"
       id="path3192"
       sodipodi:nodetypes="ccc" />
    <path
       style="fill:none;fill-rule:evenodd;stroke:#000000;stroke-width:0.57831776px;stroke-linecap:butt;stroke-linejoin:miter;marker-end:url(#Arrow2Lend);stroke-opacity:1"
       d="M 115.21813,126.96973 L 140.1875,126.96666"
       id="path3972"
       sodipodi:nodetypes="cc" />
    <path
       style="fill:none;fill-rule:evenodd;stroke:#000000;stroke-width:0.54641676px;stroke-linecap:butt;stroke-linejoin:miter;marker-end:url(#Arrow2Lend);stroke-opacity:1"
       d="M 175.19148,81.946223 L 175.1875,106.96666"
       id="path5006"
       sodipodi:nodetypes="cc" />
    <path
       style="fill:none;fill-rule:evenodd;stroke:#000000;stroke-width:0.53117913px;stroke-linecap:butt;stroke-linejoin:miter;marker-end:url(#Arrow2Lend);stroke-opacity:1"
       d="M 160.1875,196.96666 L 160.1875,171.96666"
       id="path5523"
       sodipodi:nodetypes="cc" />
    <path
       style="fill:none;fill-rule:evenodd;stroke:#000000;stroke-width:0.52614433px;stroke-linecap:butt;stroke-linejoin:miter;marker-end:url(#Arrow2Lend);stroke-opacity:1"
       d="M 175.1875,196.96666 L 175.1875,171.96666"
       id="path6040"
       sodipodi:nodetypes="cc" />
    <path
       style="fill:none;fill-rule:evenodd;stroke:#000000;stroke-width:0.55755848px;stroke-linecap:butt;stroke-linejoin:miter;marker-end:url(#Arrow2Lend);stroke-opacity:1"
       d="M 160.18757,106.87052 L 160.18757,81.900978"
       id="path6559" />
    <path
       style="fill:none;fill-rule:evenodd;stroke:#000000;stroke-width:0.58729839px;stroke-linecap:butt;stroke-linejoin:miter;marker-end:url(#Arrow2Lend);stroke-opacity:1"
       d="M 205.1875,126.96666 L 230.1875,126.96666"
       id="path7076"
       sodipodi:nodetypes="cc" />
    <path
       style="fill:none;fill-rule:evenodd;stroke:#000000;stroke-width:0.58729839px;stroke-linecap:butt;stroke-linejoin:miter;marker-end:url(#Arrow2Lend);stroke-opacity:1"
       d="M 205.1875,136.96666 L 230.1875,136.96666"
       id="path7593"
       sodipodi:nodetypes="cc" />
    <rect
       style="fill:#0000ff;stroke:none;stroke-width:2.5;stroke-miterlimit:4;stroke-dasharray:none;stroke-opacity:1"
       id="rect3160"
       width="86.022835"
       height="5"
       x="88.174187"
       y="-95.1875"
       transform="matrix(0,1,-1,0,0,0)" />
    <path
       style="fill:none;fill-rule:evenodd;stroke:#000000;stroke-width:0.88240218000000004;stroke-linecap:butt;stroke-linejoin:miter;marker-start:url(#Arrow1Lstart);marker-end:url(#Arrow1Lend);stroke-miterlimit:4.09999990000000030;stroke-dasharray:none;stroke-opacity:1"
       d="M 110.15741,81.43095 L 75.217592,81.43095"
       id="path8627"
       sodipodi:nodetypes="cc" />
    <g
       id="g12642"
       transform="translate(105.05587,105.56094)">
      <path
         id="rect2383"
         d="M 30.921623,121.31677 L 30.921623,143.12022 L 98.03882,143.12022 L 98.03882,121.31677 L 30.921623,121.31677 z"
         style="fill:#ffffff;stroke:#000000;stroke-width:1.46824598;stroke-miterlimit:4;stroke-dasharray:none" />
      <text
         transform="scale(0.9710463,1.029817)"
         id="text9681"
         y="131.40454"
         x="43.979298"
         style="font-size:12.23878098px;font-style:normal;font-weight:normal;fill:#000000;fill-opacity:1;stroke:none;stroke-width:1px;stroke-linecap:butt;stroke-linejoin:miter;stroke-opacity:1;font-family:Bitstream Vera Sans"
         xml:space="preserve"><tspan
           y="131.40454"
           x="43.979298"
           id="tspan9683"
           sodipodi:role="line">zdroj IR</tspan></text>
    </g>
    <text
       xml:space="preserve"
       style="font-size:12.62824631px;font-style:normal;font-weight:normal;fill:#000000;fill-opacity:1;stroke:none;stroke-width:1px;stroke-linecap:butt;stroke-linejoin:miter;stroke-opacity:1;font-family:Bitstream Vera Sans"
       x="86.951065"
       y="189.04965"
       id="text9685"
       transform="scale(0.9465263,1.0564947)"><tspan
         sodipodi:role="line"
         id="tspan9687"
         x="86.951065"
         y="189.04965">beamsplitter</tspan></text>
    <text
       xml:space="preserve"
       style="font-size:11.92373562px;font-style:normal;font-weight:normal;fill:#000000;fill-opacity:1;stroke:none;stroke-width:1px;stroke-linecap:butt;stroke-linejoin:miter;stroke-opacity:1;font-family:Bitstream Vera Sans"
       x="244.15352"
       y="49.747185"
       id="text9689"><tspan
         sodipodi:role="line"
         x="244.15352"
         y="49.747185"
         id="tspan11870">fixné zrkadlá</tspan></text>
    <text
       xml:space="preserve"
       style="font-size:10.66073036px;font-style:normal;font-weight:normal;fill:#000000;fill-opacity:1;stroke:none;stroke-width:1px;stroke-linecap:butt;stroke-linejoin:miter;stroke-opacity:1;font-family:Bitstream Vera Sans"
       x="30.1875"
       y="51.966663"
       id="text9693"><tspan
         sodipodi:role="line"
         id="tspan9695"
         x="30.1875"
         y="51.966663">pohyblivé zrkadlo</tspan></text>
    <path
       style="fill:none;fill-rule:evenodd;stroke:#000000;stroke-width:0.58729839;stroke-linecap:butt;stroke-linejoin:miter;marker-end:url(#Arrow1Lend);stroke-miterlimit:4;stroke-dasharray:0.58729839, 1.76189516;stroke-dashoffset:0;stroke-opacity:1"
       d="M 275.08498,54.720788 L 212.74513,62.433178"
       id="path9697"
       sodipodi:nodetypes="cc" />
    <path
       style="fill:none;fill-rule:evenodd;stroke:#000000;stroke-width:0.58729839;stroke-linecap:butt;stroke-linejoin:miter;marker-end:url(#Arrow1Lend);stroke-miterlimit:4;stroke-dasharray:0.58729839, 1.17459678;stroke-dashoffset:0;stroke-opacity:1"
       d="M 276.97393,55.314048 L 282.32513,126.30308"
       id="path10226"
       sodipodi:nodetypes="cc" />
    <path
       style="fill:none;fill-rule:evenodd;stroke:#000000;stroke-width:0.58729839;stroke-linecap:butt;stroke-linejoin:miter;marker-end:url(#Arrow1Lend);stroke-miterlimit:4;stroke-dasharray:0.58729839, 1.17459678;stroke-dashoffset:0;stroke-opacity:1"
       d="M 118.16816,189.25478 L 163.1277,142.04237"
       id="path10755"
       sodipodi:nodetypes="cc" />
    <path
       style="fill:none;fill-rule:evenodd;stroke:#000000;stroke-width:0.58729839;stroke-linecap:butt;stroke-linejoin:miter;marker-end:url(#Arrow1Lend);stroke-miterlimit:4;stroke-dasharray:0.58729839, 1.17459678;stroke-dashoffset:0;stroke-opacity:1"
       d="M 59.338393,57.405432 L 88.207984,129.68755"
       id="path11286"
       sodipodi:nodetypes="cc" />
    <g
       id="g12505"
       transform="translate(0.3571429,-62.5)">
      <a
         transform="matrix(0.5872984,0,0,0.5872984,-35.193284,47.220227)"
         id="a11819">
        <path
           style="fill:none;fill-rule:evenodd;stroke:#000000;stroke-width:1px;stroke-linecap:butt;stroke-linejoin:miter;stroke-opacity:1"
           d="M 580.83772,244.24015 L 539.90115,193.49267 L 556.59405,174.53962 L 605.08137,174.47834 L 621.89682,193.37538 L 580.83772,244.24015 z"
           id="path11815"
           sodipodi:nodetypes="cccccc" />
      </a>
      <path
         sodipodi:nodetypes="ccccsc"
         id="path11824"
         d="M 301.77895,149.69108 L 296.4396,160.99903 L 305.93177,190.06881 L 316.01721,160.89724 C 316.01721,160.89724 311.27971,149.85131 311.27113,149.72707 C 311.26195,149.59424 301.77895,149.69108 301.77895,149.69108 z"
         style="fill:none;fill-rule:evenodd;stroke:#000000;stroke-width:0.58729839px;stroke-linecap:butt;stroke-linejoin:miter;stroke-opacity:1" />
      <path
         sodipodi:nodetypes="cc"
         id="path11836"
         d="M 281.60808,160.99903 L 330.25548,160.99903"
         style="fill:none;fill-rule:evenodd;stroke:#000000;stroke-width:0.58729839px;stroke-linecap:butt;stroke-linejoin:miter;stroke-opacity:1" />
      <path
         id="path11838"
         d="M 297.63079,159.28532 C 297.97639,158.54989 299.09624,156.17841 300.11935,154.01537 L 301.97955,150.08257 L 306.50013,150.05524 L 311.02071,150.02792 L 311.78433,151.83812 C 312.20431,152.83372 313.2194,155.2175 314.04007,157.1354 L 315.53221,160.62248 L 306.26731,160.62248 L 297.00242,160.62248 L 297.63079,159.28532 z"
         style="fill:#80ffe6;stroke:none;stroke-width:1;stroke-miterlimit:4;stroke-dasharray:1, 2;stroke-dashoffset:0;stroke-opacity:1" />
      <path
         id="path11840"
         d="M 282.79637,160.3711 C 282.90244,160.23201 284.99166,157.84839 287.43909,155.07417 L 291.88896,150.03013 L 296.53697,150.03013 C 299.09337,150.03013 301.18498,150.05451 301.18498,150.08432 C 301.18498,150.11413 300.07684,152.48561 298.72245,155.35428 L 296.25993,160.57004 L 289.43174,160.59702 L 282.60355,160.624 L 282.79637,160.3711 z"
         style="fill:#00ccff;stroke:none;stroke-width:1;stroke-miterlimit:4;stroke-dasharray:1, 2;stroke-dashoffset:0;stroke-opacity:1" />
      <path
         id="path11842"
         d="M 316.25314,160.54382 C 316.1723,160.40611 312.0984,150.84474 311.87401,150.2661 L 311.78251,150.03013 L 315.89827,150.03013 L 320.01403,150.03013 L 324.36431,154.92083 C 326.75696,157.61071 328.87164,159.99399 329.0636,160.217 L 329.41262,160.62248 L 322.85597,160.62248 C 319.2498,160.62248 316.27853,160.58708 316.25314,160.54382 L 316.25314,160.54382 z"
         style="fill:#00ccff;stroke:none;stroke-width:1;stroke-miterlimit:4;stroke-dasharray:1, 2;stroke-dashoffset:0;stroke-opacity:1" />
      <path
         id="path11844"
         d="M 304.74032,185.31727 C 304.0827,183.30146 302.05676,177.09746 300.23821,171.5306 L 296.93176,161.40904 L 306.15432,161.38224 C 311.22672,161.36751 315.39691,161.37549 315.4214,161.39998 C 315.45329,161.43188 306.66399,187.00342 306.01153,188.77698 C 305.95862,188.92081 305.57762,187.88387 304.74032,185.31727 L 304.74032,185.31727 z"
         style="fill:#8080ff;stroke:none;stroke-width:1;stroke-miterlimit:4;stroke-dasharray:1, 2;stroke-dashoffset:0;stroke-opacity:1" />
      <path
         id="path11846"
         d="M 306.65988,189.04352 C 306.68771,188.957 308.85021,182.69205 311.46543,175.12141 L 316.22037,161.3566 L 322.6572,161.3566 C 327.77976,161.3566 329.07756,161.38337 329.01338,161.48769 C 328.87712,161.70918 307.04136,188.76744 306.81839,188.99109 C 306.678,189.13192 306.62591,189.14915 306.65989,189.04352 L 306.65988,189.04352 z"
         style="fill:#0044aa;stroke:none;stroke-width:1;stroke-miterlimit:4;stroke-dasharray:1, 2;stroke-dashoffset:0;stroke-opacity:1" />
      <path
         id="path11848"
         d="M 302.79973,186.22969 C 301.46747,184.576 296.40786,178.30305 291.55617,172.28979 L 282.7349,161.3566 L 289.46917,161.35781 L 296.20343,161.35902 L 300.74109,175.26936 C 303.23681,182.92004 305.26599,189.19245 305.2504,189.20805 C 305.2348,189.22365 304.132,187.88339 302.79973,186.22969 L 302.79973,186.22969 z"
         style="fill:#0044aa;stroke:none;stroke-width:1;stroke-miterlimit:4;stroke-dasharray:1, 2;stroke-dashoffset:0;stroke-opacity:1" />
    </g>
    <path
       style="fill:#0000ff;fill-rule:evenodd;stroke:#0000ff;stroke-width:4.19999981;stroke-linecap:butt;stroke-linejoin:miter;stroke-miterlimit:4;stroke-dasharray:none;stroke-opacity:1"
       d="M 258.57143,139.50504 L 292.85715,125.93361"
       id="path11862" />
    <path
       style="fill:#0000ff;fill-rule:evenodd;stroke:#0000ff;stroke-width:4.19999981;stroke-linecap:butt;stroke-linejoin:miter;stroke-miterlimit:4;stroke-dasharray:none;stroke-opacity:1"
       d="M 348.57143,139.86218 L 314.28571,126.29075"
       id="path11866" />
    <path
       style="fill:none;fill-rule:evenodd;stroke:#ff0000;stroke-width:3.20000005;stroke-linecap:butt;stroke-linejoin:miter;stroke-miterlimit:4;stroke-dasharray:none;stroke-opacity:1"
       d="M 168.18891,131.6479 L 272.85714,130.93361 L 287.14285,105.21933 L 305.71428,85.93361 L 322.85714,105.93361 L 333.57142,131.6479 L 422.85714,131.6479 L 437.14286,131.6479"
       id="path11868"
       sodipodi:nodetypes="cccccccc" />
    <path
       style="fill:none;fill-rule:evenodd;stroke:#000000;stroke-width:0.60000002;stroke-linecap:butt;stroke-linejoin:miter;marker-end:url(#Arrow1Lend);stroke-miterlimit:4;stroke-dasharray:0.6, 1.2;stroke-dashoffset:0;stroke-opacity:1"
       d="M 278.03571,54.862182 L 322.67857,126.11218"
       id="path11874"
       sodipodi:nodetypes="cc" />
    <text
       xml:space="preserve"
       style="font-size:11.97607994px;font-style:normal;font-weight:normal;fill:#000000;fill-opacity:1;stroke:none;stroke-width:1px;stroke-linecap:butt;stroke-linejoin:miter;stroke-opacity:1;font-family:Bitstream Vera Sans"
       x="326.54727"
       y="77.512016"
       id="text12413"><tspan
         sodipodi:role="line"
         id="tspan12415"
         x="326.54727"
         y="77.512016">skúmaná látka</tspan></text>
    <text
       xml:space="preserve"
       style="font-size:12.3554554px;font-style:normal;font-weight:normal;fill:#000000;fill-opacity:1;stroke:none;stroke-width:1px;stroke-linecap:butt;stroke-linejoin:miter;stroke-opacity:1;font-family:Bitstream Vera Sans"
       x="330.40723"
       y="109.25138"
       id="text12417"><tspan
         sodipodi:role="line"
         id="tspan12419"
         x="330.40723"
         y="109.25138">kryštál</tspan></text>
    <rect
       style="fill:none;stroke:#000000;stroke-width:1.31400001;stroke-miterlimit:4;stroke-dasharray:none;stroke-dashoffset:0;stroke-opacity:1"
       id="rect12421"
       width="64.725693"
       height="24.564838"
       x="436.1286"
       y="118.82977" />
    <text
       xml:space="preserve"
       style="font-size:12px;font-style:normal;font-weight:normal;fill:#000000;fill-opacity:1;stroke:none;stroke-width:1px;stroke-linecap:butt;stroke-linejoin:miter;stroke-opacity:1;font-family:Bitstream Vera Sans"
       x="446.78571"
       y="133.79074"
       id="text12423"><tspan
         sodipodi:role="line"
         id="tspan12425"
         x="446.78571"
         y="133.79074"
         style="font-size:12px">detektor</tspan></text>
    <text
       xml:space="preserve"
       style="font-size:16px;font-style:normal;font-weight:normal;fill:#000000;fill-opacity:1;stroke:none;stroke-width:1px;stroke-linecap:butt;stroke-linejoin:miter;stroke-opacity:1;font-family:Bitstream Vera Sans"
       x="150.1875"
       y="57.68095"
       id="text12487"><tspan
         sodipodi:role="line"
         id="tspan12489"
         x="150.1875"
         y="57.68095">A</tspan></text>
    <text
       xml:space="preserve"
       style="font-size:18px;font-style:normal;font-weight:normal;fill:#000000;fill-opacity:1;stroke:none;stroke-width:1px;stroke-linecap:butt;stroke-linejoin:miter;stroke-opacity:1;font-family:Bitstream Vera Sans"
       x="75.191101"
       y="153.4855"
       id="text12491"><tspan
         sodipodi:role="line"
         id="tspan12493"
         x="75.191101"
         y="153.4855">B</tspan></text>
    <path
       style="fill:none;fill-rule:evenodd;stroke:#000000;stroke-width:0.58729839px;stroke-linecap:butt;stroke-linejoin:miter;marker-end:url(#Arrow2Lend);stroke-opacity:1"
       d="M 380.1875,126.96666 L 405.1875,126.96666"
       id="path12688"
       sodipodi:nodetypes="cc" />
  </g>
</svg>
