<?xml version="1.0" encoding="UTF-8" standalone="no"?>
<svg
   xmlns:dc="http://purl.org/dc/elements/1.1/"
   xmlns:cc="http://creativecommons.org/ns#"
   xmlns:rdf="http://www.w3.org/1999/02/22-rdf-syntax-ns#"
   xmlns:svg="http://www.w3.org/2000/svg"
   xmlns="http://www.w3.org/2000/svg"
   xmlns:sodipodi="http://sodipodi.sourceforge.net/DTD/sodipodi-0.dtd"
   xmlns:inkscape="http://www.inkscape.org/namespaces/inkscape"
   width="208.46106"
   height="123.07448"
   id="svg2416"
   sodipodi:version="0.32"
   inkscape:version="0.46"
   inkscape:output_extension="org.inkscape.output.svg.inkscape"
   sodipodi:docname="interferencia_1.svg"
   version="1.0">
  <metadata
     id="metadata2439">
    <rdf:RDF>
      <cc:Work
         rdf:about="">
        <dc:format>image/svg+xml</dc:format>
        <dc:type
           rdf:resource="http://purl.org/dc/dcmitype/StillImage" />
      </cc:Work>
    </rdf:RDF>
  </metadata>
  <defs
     id="defs2437">
    <inkscape:perspective
       sodipodi:type="inkscape:persp3d"
       inkscape:vp_x="0 : 131.08464 : 1"
       inkscape:vp_y="0 : 1000 : 0"
       inkscape:vp_z="423.53149 : 131.08464 : 1"
       inkscape:persp3d-origin="211.76575 : 87.38976 : 1"
       id="perspective2441" />
  </defs>
  <sodipodi:namedview
     inkscape:window-height="696"
     inkscape:window-width="1024"
     inkscape:pageshadow="2"
     inkscape:pageopacity="0.0"
     guidetolerance="10.0"
     gridtolerance="10.0"
     objecttolerance="10.0"
     borderopacity="1.0"
     bordercolor="#666666"
     pagecolor="#ffffff"
     id="base"
     showgrid="false"
     showguides="true"
     inkscape:guide-bbox="true"
     inkscape:zoom="3.6329396"
     inkscape:cx="122.27082"
     inkscape:cy="47.768085"
     inkscape:window-x="-4"
     inkscape:window-y="-4"
     inkscape:current-layer="svg2416" />
<!-- EMR_SETMAPMODE --><!-- EMR_SETVIEWPORTEXTEX --><!-- EMR_SETWINDOWEXTEX --><!-- EMR_SETWINDOWEXTEX --><!-- EMR_BITBLT --><!-- EMR_EXTSELECTCLIPRGN --><!-- EMR_INTERSECTCLIPRECT --><!-- EMR_OFFSETCLIPRGN -->  <path
     style="fill:none;stroke:none"
     id="path2418" />
<!-- EMR_EXTSELECTCLIPRGN --><!-- EMR_INTERSECTCLIPRECT --><!-- EMR_OFFSETCLIPRGN --><!-- EMR_EXTSELECTCLIPRGN --><!-- EMR_INTERSECTCLIPRECT --><!-- EMR_OFFSETCLIPRGN --><!-- EMR_EXTSELECTCLIPRGN --><!-- EMR_INTERSECTCLIPRECT --><!-- EMR_OFFSETCLIPRGN --><!-- EMR_SELECTPALETTE --><!-- EMR_EXTSELECTCLIPRGN -->  <g
     id="g3267"
     transform="matrix(0.5156662,0,0,0.4911895,-3.2194534,-3.4760508)">
    <g
       transform="translate(-2.3356516,2.3356516)"
       id="g2443">
      <path
         style="fill:none;stroke:#23b300;stroke-width:3.17648625px;stroke-linejoin:round;stroke-dasharray:none;stroke-opacity:1"
         d="M 10.588287,106.14141 L 27.529547,81.728886 L 44.470807,57.316362 L 61.412066,38.210908 L 77.294497,24.412524 L 85.765127,19.105454 L 90.000442,15.921212 L 94.235757,14.859797 L 98.471072,12.736969 L 100.58873,12.736969 L 103.76522,11.675555 L 104.82404,11.675555 L 105.88287,11.675555 L 105.88287,11.675555 L 106.9417,11.675555 L 108.00053,11.675555 L 109.05936,11.675555 L 109.05936,11.675555 L 109.05936,11.675555 L 110.11819,11.675555 L 110.11819,11.675555 L 110.11819,11.675555 L 111.17702,11.675555 L 111.17702,11.675555 L 112.23585,11.675555 L 112.23585,11.675555 L 112.23585,11.675555 L 113.29467,11.675555 L 114.3535,11.675555 L 114.3535,11.675555 L 115.41233,11.675555 L 117.52999,11.675555 L 119.64765,12.736969 L 123.88296,13.798383 L 128.11828,14.859797 L 136.58891,19.105454 L 144.00071,23.35111 L 160.94197,39.272322 L 176.8244,57.316362 L 193.76566,80.667472 L 209.64809,105.08 L 227.64818,130.55393 L 244.58944,152.84363 L 260.47187,171.94908 L 268.9425,180.4404 L 277.41313,187.8703 L 285.88376,193.17737 L 294.35439,197.42302 L 298.5897,198.48444 L 300.70736,198.48444"
         id="path2420" />
      <path
         style="fill:none;stroke:#23b300;stroke-width:3.17648625px;stroke-linejoin:round;stroke-dasharray:none;stroke-opacity:1"
         d="M 300.70736,198.48444 L 302.82502,199.54585 L 304.94267,199.54585 L 306.0015,199.54585 L 307.06033,199.54585 L 308.11916,199.54585 L 308.11916,200.60727 L 309.17799,200.60727 L 309.17799,200.60727 L 310.23682,200.60727 L 310.23682,200.60727 L 311.29565,200.60727 L 311.29565,200.60727 L 311.29565,200.60727 L 312.35448,200.60727 L 312.35448,200.60727 L 313.4133,199.54585 L 313.4133,199.54585 L 314.47213,199.54585 L 315.53096,199.54585 L 316.58979,199.54585 L 318.70745,199.54585 L 320.8251,198.48444 L 322.94276,198.48444 L 327.17808,197.42302 L 331.41339,195.3002 L 335.64871,193.17737 L 344.11934,187.8703 L 360.00177,173.0105 L 376.94303,152.84363 L 393.88429,130.55393 L 409.76672,107.20282 L 410.82555,106.14141"
         id="path2422" />
      <path
         style="fill:none;stroke:#3300ff;stroke-width:3.17648625px;stroke-linejoin:round;stroke-dasharray:none;stroke-opacity:1"
         d="M 10.588287,58.377776 L 14.823602,55.193533 L 19.058917,52.009291 L 21.176575,50.947877 L 22.235403,50.947877 L 23.294232,49.886463 L 24.353061,49.886463 L 25.41189,49.886463 L 26.470718,48.825049 L 26.470718,48.825049 L 27.529547,48.825049 L 27.529547,48.825049 L 28.588376,48.825049 L 28.588376,48.825049 L 28.588376,48.825049 L 29.647204,48.825049 L 29.647204,48.825049 L 30.706033,48.825049 L 30.706033,48.825049 L 31.764862,48.825049 L 31.764862,48.825049 L 32.823691,49.886463 L 33.882519,49.886463 L 34.941348,49.886463 L 36.000177,49.886463 L 38.117834,50.947877 L 40.235492,53.070705 L 44.470807,56.254948 L 48.706122,59.43919 L 54.000265,65.807674 L 62.470895,77.48323 L 79.412155,106.14141 L 95.294586,133.73818 L 103.76522,145.41373 L 111.17702,153.90505 L 115.41233,157.08929 L 119.64765,160.27353 L 121.7653,161.33494 L 123.88296,161.33494 L 124.94179,162.39636 L 126.00062,162.39636 L 127.05945,162.39636 L 127.05945,162.39636 L 127.05945,162.39636 L 128.11828,162.39636 L 128.11828,162.39636 L 128.11828,162.39636 L 129.1771,162.39636 L 129.1771,162.39636 L 130.23593,162.39636"
         id="path2424" />
      <path
         style="fill:none;stroke:#3300ff;stroke-width:3.17648625px;stroke-linejoin:round;stroke-dasharray:none;stroke-opacity:1"
         d="M 130.23593,162.39636 L 130.23593,162.39636 L 130.23593,162.39636 L 131.29476,162.39636 L 131.29476,162.39636 L 132.35359,162.39636 L 133.41242,161.33494 L 134.47125,161.33494 L 136.58891,160.27353 L 138.70656,159.21212 L 140.82422,158.1507 L 145.05954,154.96646 L 153.53017,145.41373 L 162.0008,134.79959 L 178.94206,106.14141 L 194.82449,78.544644 L 203.29512,66.869089 L 207.53043,61.562018 L 211.76575,57.316362 L 216.00106,53.070705 L 218.11872,52.009291 L 220.23638,50.947877 L 222.35403,49.886463 L 224.47169,49.886463 L 225.53052,49.886463 L 226.58935,48.825049 L 226.58935,48.825049 L 227.64818,48.825049 L 227.64818,48.825049 L 228.70701,48.825049 L 228.70701,48.825049 L 229.76583,48.825049 L 229.76583,48.825049 L 230.82466,48.825049 L 230.82466,48.825049 L 231.88349,48.825049 L 232.94232,49.886463 L 232.94232,49.886463 L 234.00115,49.886463 L 236.11881,50.947877 L 238.23646,52.009291 L 240.35412,53.070705 L 244.58944,56.254948 L 253.06007,64.74626 L 261.5307,76.421816 L 278.47196,105.08 L 295.41322,132.67676 L 302.82502,145.41373 L 308.11916,149.65939 L 312.35448,154.96646 L 316.58979,158.1507"
         id="path2426" />
      <path
         style="fill:none;stroke:#3300ff;stroke-width:3.17648625px;stroke-linejoin:round;stroke-dasharray:none;stroke-opacity:1"
         d="M 316.58979,158.1507 L 318.70745,159.21212 L 320.8251,160.27353 L 321.88393,161.33494 L 322.94276,161.33494 L 324.00159,161.33494 L 325.06042,162.39636 L 326.11925,162.39636 L 326.11925,162.39636 L 327.17808,162.39636 L 327.17808,162.39636 L 328.23691,162.39636 L 328.23691,162.39636 L 329.29573,162.39636 L 329.29573,162.39636 L 330.35456,162.39636 L 330.35456,162.39636 L 331.41339,162.39636 L 331.41339,162.39636 L 332.47222,162.39636 L 333.53105,162.39636 L 334.58988,161.33494 L 336.70754,160.27353 L 338.82519,159.21212 L 342.00168,158.1507 L 345.17817,154.96646 L 353.6488,145.41373 L 363.17825,132.67676 L 379.06069,106.14141 L 396.00194,76.421816 L 410.82555,58.377776"
         id="path2428" />
      <path
         style="fill:none;stroke:#ff0000;stroke-width:3.17648625px;stroke-linejoin:round;stroke-dasharray:none;stroke-opacity:1"
         d="M 10.588287,58.377776 L 19.058917,40.333736 L 27.529547,25.473939 L 31.764862,19.105454 L 36.000177,14.859797 L 38.117834,12.736969 L 40.235492,10.614141 L 42.353149,9.5527269 L 44.470807,7.4298987 L 46.588464,7.4298987 L 47.647293,6.3684846 L 48.706122,6.3684846 L 49.76495,6.3684846 L 49.76495,6.3684846 L 50.823779,6.3684846 L 50.823779,6.3684846 L 51.882608,6.3684846 L 51.882608,6.3684846 L 51.882608,6.3684846 L 52.941436,6.3684846 L 52.941436,6.3684846 L 54.000265,6.3684846 L 54.000265,6.3684846 L 55.059094,6.3684846 L 56.117923,6.3684846 L 56.117923,6.3684846 L 57.176751,7.4298987 L 59.294409,7.4298987 L 61.412066,8.4913128 L 65.647381,10.614141 L 69.882696,13.798383 L 78.353326,22.289696 L 95.294586,41.39515 L 111.17702,58.377776 L 118.58882,65.807674 L 122.82413,68.991917 L 127.05945,71.114745 L 129.1771,72.176159 L 132.35359,73.237573 L 133.41242,73.237573 L 135.53008,74.298987 L 137.64773,74.298987 L 138.70656,74.298987 L 139.76539,74.298987 L 139.76539,74.298987 L 140.82422,74.298987 L 140.82422,74.298987 L 140.82422,74.298987 L 141.88305,74.298987 L 141.88305,74.298987"
         id="path2430" />
      <path
         style="fill:none;stroke:#ff0000;stroke-width:3.17648625px;stroke-linejoin:round;stroke-dasharray:none;stroke-opacity:1"
         d="M 141.88305,74.298987 L 142.94188,74.298987 L 142.94188,74.298987 L 142.94188,74.298987 L 144.00071,74.298987 L 145.05954,74.298987 L 146.11836,74.298987 L 147.17719,74.298987 L 149.29485,73.237573 L 151.41251,73.237573 L 152.47134,72.176159 L 162.0008,68.991917 L 177.88323,60.500604 L 182.11854,59.43919 L 187.41269,57.316362 L 189.53034,56.254948 L 191.648,56.254948 L 193.76566,55.193533 L 194.82449,55.193533 L 195.88331,55.193533 L 195.88331,55.193533 L 196.94214,55.193533 L 196.94214,55.193533 L 196.94214,55.193533 L 198.00097,55.193533 L 198.00097,55.193533 L 198.00097,55.193533 L 199.0598,55.193533 L 199.0598,55.193533 L 200.11863,55.193533 L 200.11863,55.193533 L 201.17746,55.193533 L 201.17746,55.193533 L 203.29512,55.193533 L 204.35394,55.193533 L 205.41277,56.254948 L 207.53043,56.254948 L 211.76575,58.377776 L 216.00106,61.562018 L 219.17755,64.74626 L 227.64818,74.298987 L 236.11881,88.097371 L 244.58944,102.95717 L 260.47187,142.22949 L 277.41313,183.62464 L 285.88376,204.85292 L 294.35439,222.89696 L 302.82502,237.75676 L 306.0015,243.06383 L 310.23682,247.30949 L 314.47213,250.49373"
         id="path2432" />
      <path
         style="fill:none;stroke:#ff0000;stroke-width:3.17648625px;stroke-linejoin:round;stroke-dasharray:none;stroke-opacity:1"
         d="M 314.47213,250.49373 L 316.58979,251.55514 L 318.70745,252.61656 L 319.76628,253.67797 L 320.8251,253.67797 L 321.88393,253.67797 L 321.88393,253.67797 L 322.94276,253.67797 L 322.94276,253.67797 L 322.94276,253.67797 L 324.00159,253.67797 L 324.00159,253.67797 L 324.00159,253.67797 L 325.06042,253.67797 L 325.06042,253.67797 L 325.06042,253.67797 L 326.11925,253.67797 L 326.11925,253.67797 L 327.17808,253.67797 L 329.29573,252.61656 L 330.35456,252.61656 L 331.41339,251.55514 L 335.64871,248.3709 L 337.76636,246.24807 L 339.88402,244.12524 L 344.11934,237.75676 L 352.58997,222.89696 L 361.0606,201.66868 L 376.94303,156.02787 L 393.88429,104.01858 L 410.82555,58.377776 L 410.82555,58.377776"
         id="path2434" />
    </g>
    <path
       id="path2495"
       d="M 7.7072571,108.02414 L 409.03515,106.9231"
       style="opacity:1;fill:none;fill-rule:evenodd;stroke:#000000;stroke-width:3;stroke-linecap:butt;stroke-linejoin:miter;stroke-miterlimit:7.69999981;stroke-dasharray:none;stroke-opacity:1" />
  </g>
  <g
     id="g3291"
     transform="matrix(1.1461081,0,0,1.1461081,-0.1922791,-6.8744745)">
    <text
       id="text3279"
       y="65.634224"
       x="4.6049247"
       style="font-size:4px;font-style:normal;font-weight:normal;fill:#0000ff;fill-opacity:1;stroke:none;stroke-width:1px;stroke-linecap:butt;stroke-linejoin:miter;stroke-opacity:1;font-family:Bitstream Vera Sans"
       xml:space="preserve"><tspan
         style="font-size:8px"
         y="65.634224"
         x="4.6049247"
         id="tspan3281"
         sodipodi:role="line">1. vlna</tspan></text>
    <text
       id="text3283"
       y="74.814575"
       x="5.2416434"
       style="font-size:4px;font-style:normal;font-weight:normal;fill:#008000;fill-opacity:1;stroke:none;stroke-width:1px;stroke-linecap:butt;stroke-linejoin:miter;stroke-opacity:1;font-family:Bitstream Vera Sans"
       xml:space="preserve"><tspan
         style="font-size:8px;fill:#008000"
         y="74.814575"
         x="5.2416434"
         id="tspan3285"
         sodipodi:role="line">2. vlna</tspan></text>
    <text
       id="text3287"
       y="83.250809"
       x="5.2299247"
       style="font-size:4px;font-style:normal;font-weight:normal;fill:#ff0000;fill-opacity:1;stroke:none;stroke-width:1px;stroke-linecap:butt;stroke-linejoin:miter;stroke-opacity:1;font-family:Bitstream Vera Sans"
       xml:space="preserve"><tspan
         style="font-size:8px;fill:#ff0000"
         y="83.250809"
         x="5.2299247"
         id="tspan3289"
         sodipodi:role="line">superpozícia</tspan></text>
  </g>
</svg>
